<svg width="11" height="16" viewBox="0 0 11 16" fill="none" xmlns="http://www.w3.org/2000/svg">
<path d="M11.0051 14.685C11.0051 15.4125 8.54006 16 5.50254 16C2.46502 16 0 15.4125 0 14.685C0 14.035 1.97501 13.5 4.56503 13.39H6.44004C9.03256 13.5 11.0051 14.035 11.0051 14.685Z" fill="#F0F7FE"/>
<path d="M5.50273 0C2.67771 0 0.387695 2.28752 0.387695 5.11253C0.387695 7.93755 5.50273 14.6851 5.50273 14.6851C5.50273 14.6851 10.6153 7.93755 10.6153 5.11253C10.6153 2.28752 8.32775 0 5.50273 0ZM5.50273 8.49756C3.63272 8.49756 2.11771 6.98255 2.11771 5.11253C2.11771 3.24252 3.63272 1.72751 5.50273 1.72751C7.37274 1.72751 8.88775 3.24252 8.88775 5.11253C8.88775 6.98255 7.37274 8.49756 5.50273 8.49756Z" fill="#CD6129"/>
</svg>
