<svg width="180" height="51" viewBox="0 0 180 51" fill="none" xmlns="http://www.w3.org/2000/svg">
<path d="M72.8218 28.0981L70.3209 21.7013H62.257L59.7788 28.0981H57.4141L65.3703 7.89844H67.3324L75.2433 28.0981H72.8218ZM69.5894 19.5974L67.253 13.3651C66.9468 12.5769 66.6406 11.6129 66.3173 10.4617C66.1132 11.3407 65.824 12.3104 65.4497 13.3651L63.0849 19.5974H69.5894Z" fill="black"/>
<path d="M92.771 28.0981L90.2645 21.7013H82.2062L79.728 28.0981H77.3633L85.3138 7.89844H87.2816L95.1925 28.0981H92.771ZM89.5386 19.5974L87.2022 13.3651C86.9017 12.5769 86.5898 11.6129 86.2665 10.4617C86.0624 11.3407 85.7732 12.3104 85.3989 13.3651L83.0341 19.5974H89.5386Z" fill="black"/>
<path d="M114.302 17.8517C114.302 21.1691 113.4 23.7097 111.597 25.4676C109.794 27.2199 107.202 28.0989 103.817 28.0989H98.2422V7.98438H104.406C107.537 7.98438 109.964 8.85202 111.699 10.5873C113.434 12.3226 114.302 14.744 114.302 17.8517ZM111.824 17.9311C111.824 15.3055 111.16 13.332 109.85 12.005C108.535 10.678 106.578 10.0089 103.981 10.0089H100.584V26.0801H103.437C106.227 26.0801 108.319 25.3939 109.726 24.0216C111.132 22.6492 111.83 20.6191 111.83 17.9311" fill="black"/>
<path d="M120.926 19.7344V28.0989H118.59V7.98438H124.108C126.574 7.98438 128.4 8.45506 129.574 9.40209C130.754 10.3491 131.344 11.7668 131.344 13.6666C131.344 16.3262 129.994 18.1239 127.3 19.0596L132.761 28.0989H129.994L125.128 19.7344H120.932H120.926ZM120.926 17.7269H124.136C125.786 17.7269 127 17.398 127.771 16.7459C128.542 16.088 128.928 15.107 128.928 13.797C128.928 12.487 128.537 11.5117 127.754 10.9219C126.966 10.3378 125.712 10.0429 123.977 10.0429H120.938V17.7326L120.926 17.7269Z" fill="black"/>
<path d="M140.709 7.98438H138.367V28.0989H140.709V7.98438Z" fill="black"/>
<path d="M148.121 28.0989V7.98438H150.457V25.9837H159.332V28.0989H148.121Z" fill="black"/>
<path d="M177.107 28.0981L174.606 21.7013H166.542L164.064 28.0981H161.699L169.655 7.89844H171.618L179.528 28.0981H177.107ZM173.875 19.5974L171.538 13.3651C171.232 12.5769 170.926 11.6129 170.602 10.4617C170.398 11.3407 170.109 12.3104 169.735 13.3651L167.37 19.5974H173.875Z" fill="black"/>
<path d="M60.8083 43.0462H59.572V36.5077H57.332V35.4473H63.0483V36.5077H60.8083V43.0462Z" fill="black"/>
<path d="M72.3415 43.0462H68.043V35.4473H72.3415V36.4964H69.2849V38.5662H72.1487V39.604H69.2849V41.9914H72.3415V43.0462Z" fill="black"/>
<path d="M81.0442 36.4004C80.3296 36.4004 79.7682 36.6555 79.3599 37.1602C78.9516 37.665 78.7475 38.3625 78.7475 39.2585C78.7475 40.1545 78.9403 40.8973 79.3372 41.3737C79.7285 41.85 80.2956 42.0882 81.0442 42.0882C81.3617 42.0882 81.6793 42.0599 81.9799 41.9918C82.2804 41.9294 82.5923 41.8444 82.9212 41.748V42.8084C82.3258 43.0353 81.6509 43.1487 80.8967 43.1487C79.7852 43.1487 78.9346 42.8084 78.3335 42.1393C77.7381 41.4644 77.4375 40.5004 77.4375 39.2471C77.4375 38.4532 77.5793 37.767 77.8742 37.1716C78.1634 36.5818 78.5773 36.1281 79.1274 35.8106C79.6775 35.493 80.3183 35.3342 81.0555 35.3342C81.8324 35.3342 82.5469 35.493 83.2048 35.8219L82.7568 36.8597C82.4959 36.7349 82.2237 36.6329 81.9402 36.5421C81.651 36.4514 81.3561 36.406 81.0385 36.406" fill="black"/>
<path d="M94.3808 43.0462H93.1332V39.621H89.6286V43.0462H88.3867V35.4473H89.6286V38.5549H93.1332V35.4473H94.3808V43.0462Z" fill="black"/>
<path d="M106.545 43.0462H105.02L101.283 36.9897H101.243L101.266 37.33C101.317 37.9708 101.339 38.5606 101.339 39.0936V43.0462H100.211V35.4473H101.719L105.445 41.4697H105.479C105.473 41.3903 105.456 41.1011 105.434 40.5964C105.417 40.0974 105.405 39.7061 105.405 39.4282V35.4473H106.545V43.0462Z" fill="black"/>
<path d="M119.123 39.2354C119.123 40.4716 118.811 41.4356 118.193 42.1218C117.58 42.808 116.701 43.1539 115.567 43.1539C114.433 43.1539 113.542 42.8137 112.924 42.1332C112.306 41.4527 112 40.4829 112 39.2297C112 37.9764 112.306 37.0124 112.93 36.3375C113.548 35.6627 114.433 35.3281 115.578 35.3281C116.724 35.3281 117.58 35.6684 118.198 36.3546C118.816 37.0407 119.128 37.9991 119.128 39.241M113.316 39.2354C113.316 40.171 113.503 40.8799 113.883 41.3619C114.257 41.8439 114.818 42.0878 115.561 42.0878C116.304 42.0878 116.86 41.8496 117.234 41.3733C117.608 40.8969 117.801 40.1824 117.801 39.2354C117.801 38.2883 117.614 37.5965 117.24 37.1144C116.871 36.6324 116.316 36.3942 115.573 36.3942C114.83 36.3942 114.268 36.6324 113.888 37.1144C113.508 37.5965 113.316 38.3053 113.316 39.2354Z" fill="black"/>
<path d="M124.578 43.0462V35.4473H125.814V41.9801H129.035V43.0462H124.578Z" fill="black"/>
<path d="M140.927 39.2354C140.927 40.4716 140.621 41.4356 139.997 42.1218C139.379 42.808 138.5 43.1539 137.372 43.1539C136.243 43.1539 135.341 42.8137 134.729 42.1332C134.117 41.4527 133.805 40.4829 133.805 39.2297C133.805 37.9764 134.117 37.0124 134.735 36.3375C135.347 35.6627 136.237 35.3281 137.383 35.3281C138.529 35.3281 139.385 35.6684 140.003 36.3546C140.621 37.0407 140.933 37.9991 140.933 39.241M135.126 39.2354C135.126 40.171 135.313 40.8799 135.693 41.3619C136.073 41.8439 136.634 42.0878 137.372 42.0878C138.109 42.0878 138.67 41.8496 139.045 41.3733C139.419 40.8969 139.606 40.1824 139.606 39.2354C139.606 38.2883 139.419 37.5965 139.05 37.1144C138.676 36.6324 138.12 36.3942 137.383 36.3942C136.646 36.3942 136.079 36.6324 135.699 37.1144C135.319 37.5965 135.126 38.3053 135.126 39.2354Z" fill="black"/>
<path d="M149.49 38.9238H152.285V42.7403C151.826 42.8934 151.384 42.9955 150.964 43.0578C150.544 43.1202 150.091 43.1542 149.603 43.1542C148.452 43.1542 147.562 42.814 146.944 42.1335C146.32 41.453 146.008 40.4889 146.008 39.2527C146.008 38.0164 146.354 37.0694 147.063 36.3832C147.766 35.6914 148.736 35.3455 149.966 35.3455C150.76 35.3455 151.509 35.4986 152.223 35.8048L151.786 36.8426C151.174 36.559 150.556 36.4173 149.938 36.4173C149.127 36.4173 148.486 36.6724 148.015 37.1828C147.539 37.6932 147.306 38.3907 147.306 39.2754C147.306 40.2054 147.516 40.9142 147.942 41.3963C148.367 41.8783 148.979 42.1221 149.773 42.1221C150.176 42.1221 150.607 42.0711 151.061 41.9747V40.0126H149.49V38.9465V38.9238Z" fill="black"/>
<path d="M159.172 35.4473H157.93V43.0462H159.172V35.4473Z" fill="black"/>
<path d="M169.299 43.0462H165V35.4473H169.299V36.4964H166.242V38.5662H169.106V39.604H166.242V41.9914H169.299V43.0462Z" fill="black"/>
<path d="M179.149 40.9824C179.149 41.6572 178.905 42.1902 178.417 42.5759C177.93 42.9615 177.255 43.1543 176.399 43.1543C175.542 43.1543 174.833 43.0182 174.289 42.7517V41.5778C174.635 41.7422 175.004 41.867 175.395 41.9634C175.786 42.0541 176.143 42.1052 176.484 42.1052C176.977 42.1052 177.34 42.0088 177.572 41.8216C177.811 41.6345 177.924 41.3793 177.924 41.0674C177.924 40.7839 177.816 40.5457 177.607 40.3472C177.391 40.1487 176.943 39.9162 176.274 39.644C175.582 39.3605 175.094 39.0429 174.811 38.6857C174.522 38.3227 174.385 37.8917 174.385 37.387C174.385 36.7519 174.612 36.2529 175.06 35.8899C175.514 35.527 176.121 35.3398 176.875 35.3398C177.629 35.3398 178.332 35.4986 179.053 35.8162L178.656 36.8313C177.981 36.5477 177.374 36.406 176.847 36.406C176.444 36.406 176.138 36.4967 175.928 36.6725C175.724 36.8483 175.616 37.0808 175.616 37.3643C175.616 37.5628 175.656 37.7329 175.741 37.869C175.82 38.0108 175.962 38.1469 176.149 38.266C176.336 38.3908 176.682 38.5552 177.181 38.765C177.737 38.9976 178.145 39.213 178.406 39.4172C178.667 39.6157 178.86 39.8425 178.979 40.0977C179.104 40.3529 179.16 40.6478 179.16 40.9937" fill="black"/>
<g opacity="0.58">
<mask id="mask0_0_1351" style="mask-type:luminance" maskUnits="userSpaceOnUse" x="0" y="4" width="46" height="46">
<path d="M45.8943 4.10547H0V49.9998H45.8943V4.10547Z" fill="white"/>
</mask>
<g mask="url(#mask0_0_1351)">
<mask id="mask1_0_1351" style="mask-type:luminance" maskUnits="userSpaceOnUse" x="0" y="4" width="46" height="46">
<path d="M45.8943 4.10547H0V49.9998H45.8943V4.10547Z" fill="white"/>
</mask>
<g mask="url(#mask1_0_1351)">
<path d="M45.8148 25.1716C46.8526 37.8007 37.456 48.8815 24.8269 49.9193C12.1979 50.9571 1.11706 41.5604 0.0792954 28.9314C-0.958473 16.3024 8.43815 5.22156 21.0672 4.18379C33.6962 3.14602 44.777 12.5426 45.8148 25.1716Z" fill="#B7C5E5"/>
</g>
</g>
</g>
<g opacity="0.31">
<mask id="mask2_0_1351" style="mask-type:luminance" maskUnits="userSpaceOnUse" x="35" y="6" width="18" height="18">
<path d="M52.3197 6.64648H35.2617V23.7044H52.3197V6.64648Z" fill="white"/>
</mask>
<g mask="url(#mask2_0_1351)">
<mask id="mask3_0_1351" style="mask-type:luminance" maskUnits="userSpaceOnUse" x="35" y="6" width="18" height="18">
<path d="M52.3197 6.64648H35.2617V23.7044H52.3197V6.64648Z" fill="white"/>
</mask>
<g mask="url(#mask3_0_1351)">
<path d="M52.2852 14.4787C52.6708 19.1742 49.1776 23.2912 44.4821 23.6768C39.7866 24.0624 35.6696 20.5692 35.284 15.8737C34.8984 11.1782 38.3916 7.06119 43.0871 6.67557C47.7826 6.28996 51.8996 9.78321 52.2852 14.4787Z" fill="#EE6727"/>
</g>
</g>
</g>
<g opacity="0.58">
<mask id="mask4_0_1351" style="mask-type:luminance" maskUnits="userSpaceOnUse" x="35" y="0" width="7" height="6">
<path d="M41.1753 0H35.7539V5.42135H41.1753V0Z" fill="white"/>
</mask>
<g mask="url(#mask4_0_1351)">
<mask id="mask5_0_1351" style="mask-type:luminance" maskUnits="userSpaceOnUse" x="35" y="0" width="7" height="6">
<path d="M41.1753 0H35.7539V5.42135H41.1753V0Z" fill="white"/>
</mask>
<g mask="url(#mask5_0_1351)">
<path d="M41.1641 2.48943C41.2888 3.98087 40.1773 5.29084 38.6859 5.4156C37.1945 5.53469 35.8845 4.42887 35.7654 2.93176C35.6407 1.44032 36.7521 0.130353 38.2436 0.0112648C39.735 -0.113494 41.045 0.997995 41.1641 2.48943Z" fill="#719AD0"/>
</g>
</g>
</g>
<path d="M24.6527 22.3941C24.3068 20.9594 23.4221 19.7401 22.1632 18.9689C20.8986 18.1976 19.4185 17.9595 17.9781 18.3054C16.5433 18.6513 15.3241 19.5303 14.5529 20.7949C13.7816 22.0595 13.5435 23.5453 13.8894 24.98C14.2353 26.4147 15.12 27.634 16.3846 28.4109C17.3996 29.0347 18.5622 29.3069 19.7247 29.2105C20.0082 29.1821 20.2861 29.1424 20.5697 29.0744C22.0044 28.7284 23.2236 27.8495 23.9949 26.5849C24.7661 25.3203 25.0043 23.8345 24.6583 22.3998M17.1218 27.186C16.1861 26.6132 15.5283 25.7115 15.2731 24.6454C15.0179 23.585 15.1937 22.4791 15.7721 21.5435C16.3449 20.6078 17.2465 19.9499 18.3127 19.6948C18.5225 19.6437 18.7323 19.6097 18.9421 19.5927C19.8041 19.519 20.6661 19.7231 21.4203 20.1881C22.356 20.7609 23.0138 21.6625 23.269 22.7287C23.5242 23.7891 23.3484 24.8949 22.7756 25.8306C22.2029 26.7663 21.2955 27.4241 20.2351 27.6793C19.169 27.9345 18.0688 27.7587 17.1331 27.186" fill="#403644"/>
<path d="M22.7775 2.11014C22.3635 2.21789 22.0233 2.47875 21.8078 2.84735C21.5923 3.21596 21.5299 3.64127 21.6377 4.05525C21.7454 4.46355 22.0119 4.80947 22.3749 5.02496C22.7435 5.24046 23.1745 5.30284 23.5828 5.19509C23.9967 5.08734 24.337 4.82081 24.5525 4.45788C24.768 4.08927 24.8304 3.65829 24.7226 3.24998C24.5015 2.39935 23.6281 1.88331 22.7775 2.11014Z" fill="white"/>
<path d="M46.8163 29.885H46.7993C46.425 29.9134 46.1075 30.1175 45.926 30.4351C45.7389 30.7583 45.7218 31.1383 45.8863 31.4842C46.0734 31.8755 46.5101 32.1307 46.9467 32.1023C47.3437 32.0853 47.6499 31.8755 47.8427 31.5522C48.0299 31.229 48.0469 30.849 47.8824 30.5031C47.6953 30.1062 47.2586 29.8566 46.822 29.885" fill="white"/>
<path d="M50.6296 13.9456C50.4254 13.112 49.9151 12.4031 49.1835 11.9551C48.452 11.5071 47.59 11.371 46.7507 11.5695C45.0268 11.9834 43.9607 13.7187 44.3746 15.4427C44.5051 15.9757 44.7603 16.4578 45.1232 16.8547L38.1707 27.3118C37.4165 27.0566 36.5829 26.9999 35.7549 27.204C34.6151 27.4762 33.6397 28.1851 33.0272 29.1889C33.0045 29.2229 32.9875 29.2626 32.9705 29.2966L20.1657 22.9963L23.279 5.85892C23.3074 5.85892 23.3357 5.85892 23.3698 5.85892C23.4945 5.84758 23.6249 5.83056 23.7497 5.79654C24.3225 5.6491 24.7988 5.28616 25.0994 4.77578C25.3999 4.2654 25.4793 3.66996 25.3319 3.10288C25.0256 1.92901 23.8177 1.22015 22.6382 1.52638C22.0711 1.67382 21.5891 2.03676 21.2942 2.54713C20.9937 3.05184 20.9143 3.64728 21.0617 4.22004C21.2092 4.7928 21.5721 5.26915 22.0825 5.56403C22.2072 5.64342 22.3433 5.69446 22.4794 5.7455L19.2811 23.3535L18.6516 22.9055L7.11139 39.2603C6.47625 39.0562 5.79575 39.0221 5.12659 39.1809C4.16821 39.4077 3.36295 39.9975 2.84123 40.8368C2.32518 41.6761 2.17207 42.6685 2.3989 43.6212C2.62573 44.5796 3.2155 45.3905 4.05479 45.9066C4.72962 46.3205 5.50086 46.502 6.27777 46.4396C6.46491 46.4226 6.65205 46.3943 6.83919 46.3489C7.79756 46.1221 8.6085 45.5266 9.12454 44.6873C9.64059 43.848 9.79371 42.8556 9.56687 41.9029C9.39675 41.1997 9.03381 40.5759 8.51776 40.0882L19.2867 24.8223L25.0767 38.4324C24.64 38.8293 24.4245 39.4418 24.5833 40.0542C24.7875 40.8255 25.519 41.3302 26.2902 41.2621C26.381 41.2564 26.4774 41.2394 26.5681 41.2168C26.9878 41.109 27.3394 40.8425 27.5605 40.4625C27.7817 40.0882 27.8441 39.6516 27.7306 39.2263C27.6229 38.8066 27.3564 38.455 26.9821 38.2395C26.6248 38.0297 26.2109 37.9673 25.8082 38.0581L20.058 24.5444L32.4658 30.6463C32.3411 31.2644 32.3467 31.8995 32.4998 32.529C32.772 33.6745 33.4809 34.6442 34.4846 35.2623C35.2899 35.7614 36.2143 35.9769 37.1443 35.9032C37.3711 35.8805 37.5979 35.8464 37.8191 35.7954C39.7075 35.3417 41.0232 33.7255 41.1876 31.8882L45.2536 31.5366C45.2763 31.616 45.3047 31.6897 45.3387 31.7634C45.6336 32.3872 46.3027 32.7785 46.9946 32.7275H47.0229C47.59 32.6821 48.0947 32.3645 48.3783 31.8768C48.6675 31.3835 48.6902 30.7767 48.4463 30.255C48.1458 29.6255 47.4823 29.2399 46.7904 29.2853C46.2063 29.3249 45.6959 29.6425 45.4067 30.1359C45.299 30.3174 45.2309 30.5102 45.1969 30.7143L41.1819 31.0602C41.1593 30.8674 41.1309 30.6689 41.0855 30.4705C40.836 29.4384 40.2462 28.5821 39.458 27.9866L46.3084 17.6827C46.7734 17.8698 47.2724 17.9492 47.7715 17.9095C47.9359 17.8982 48.1004 17.8698 48.2648 17.8301C49.9888 17.4161 51.0549 15.6809 50.6466 13.9569M21.6401 4.05558C21.5324 3.64728 21.5948 3.2163 21.8103 2.84769C22.0258 2.47908 22.366 2.21822 22.78 2.11048C23.6306 1.88364 24.5039 2.39969 24.7251 3.25032C24.8328 3.66429 24.7761 4.09528 24.555 4.45821C24.3395 4.82682 23.9992 5.08768 23.5852 5.19543C23.1769 5.30317 22.746 5.24646 22.3773 5.03097C22.0087 4.81548 21.7479 4.46956 21.6401 4.05558ZM7.89397 43.9388C7.5764 44.4548 7.08303 44.8121 6.49893 44.9538C5.91484 45.0899 5.30805 44.9935 4.79768 44.6816C4.2873 44.3698 3.92436 43.8707 3.78259 43.2866C3.64649 42.7025 3.74289 42.0957 4.05479 41.5854C4.37236 41.0693 4.86573 40.712 5.44982 40.5703C5.56324 40.5419 5.68233 40.5249 5.79575 40.5136C6.2721 40.4739 6.74278 40.5873 7.15108 40.8425C7.66713 41.16 8.0244 41.6534 8.16617 42.2375C8.30794 42.8216 8.21153 43.4284 7.89397 43.9388ZM45.9228 30.4364C46.1099 30.1189 46.4275 29.9204 46.7961 29.892C46.8018 29.892 46.8074 29.892 46.8188 29.892C47.2554 29.8637 47.6921 30.1189 47.8792 30.5158C48.0437 30.8561 48.0267 31.236 47.8395 31.5593C47.6524 31.8825 47.3405 32.0923 46.9435 32.1093C46.5069 32.1377 46.0702 31.8825 45.8831 31.4912C45.7186 31.1453 45.7356 30.7654 45.9228 30.4421M36.0838 28.5991C36.2369 28.5594 36.3901 28.5367 36.5375 28.5254C36.8097 28.5027 37.0762 28.5254 37.3371 28.5707L35.891 30.7427L34.2465 29.9374C34.6661 29.2626 35.3183 28.7862 36.0838 28.6047M39.6792 30.7994C39.7075 30.9298 39.7302 31.0546 39.7415 31.1793L37.5299 31.3721L37.6036 32.1887L39.7189 32.0073C39.5204 33.1414 38.6697 34.1112 37.4789 34.3947C36.7076 34.5818 35.908 34.4514 35.2275 34.0374C34.547 33.6178 34.0707 32.9656 33.8835 32.1944C33.8155 31.9052 33.7871 31.6046 33.8098 31.3154L36.3901 32.5857L38.6471 29.1889C39.1461 29.5858 39.5204 30.1472 39.6792 30.8107M47.9189 16.4294C47.4539 16.5372 46.9776 16.4634 46.5693 16.2139C46.161 15.9644 45.8774 15.5731 45.764 15.1081C45.5315 14.1497 46.1269 13.1857 47.0853 12.9588C47.5446 12.8511 48.0267 12.9248 48.435 13.1743C48.8376 13.4238 49.1268 13.8151 49.2346 14.2801C49.4614 15.2385 48.8716 16.2026 47.9132 16.4294" fill="#403644"/>
<path d="M7.15223 21.5375C7.50382 21.7416 7.89511 21.8267 8.29207 21.7983C8.40549 21.787 8.51891 21.77 8.62666 21.7416C9.12569 21.6112 9.52265 21.2993 9.77217 20.8967L13.997 22.3711L14.2635 21.5999L10.0557 20.1311C10.0897 19.8873 10.0784 19.6264 10.0103 19.3712C9.73814 18.3334 8.67769 17.7153 7.63993 17.9818C7.14089 18.1123 6.72125 18.4355 6.45471 18.8835C6.19385 19.3315 6.12013 19.8532 6.25056 20.3579C6.38099 20.857 6.70423 21.2766 7.14656 21.5431M6.98778 19.1897C7.16924 18.8835 7.45279 18.6623 7.79871 18.5773C7.8781 18.5546 7.95182 18.5433 8.02554 18.5376C8.65501 18.4865 9.25612 18.8892 9.42058 19.5243C9.60771 20.2332 9.1824 20.959 8.47354 21.1462C8.12762 21.2369 7.77035 21.1859 7.46413 21.0044C7.1579 20.8229 6.93674 20.5394 6.846 20.1935C6.76094 19.8476 6.80631 19.496 6.98778 19.1841" fill="#403644"/>
<path d="M21.4142 20.1885C20.6599 19.7235 19.798 19.5251 18.9417 19.5931C18.7318 19.6101 18.522 19.6441 18.3122 19.6952C17.2461 19.9504 16.3444 20.6082 15.7716 21.5439C15.1989 22.4796 15.0231 23.5854 15.2783 24.6458C15.5335 25.712 16.1856 26.6136 17.127 27.1864C18.0627 27.7592 19.1685 27.9349 20.2289 27.6798C21.2951 27.4246 22.1967 26.7668 22.7695 25.8311C23.3423 24.8954 23.5181 23.7895 23.2629 22.7291C23.0077 21.663 22.3499 20.7613 21.4142 20.1885Z" fill="white"/>
<path d="M20.0807 26.5406C21.6402 26.1323 22.5758 24.5331 22.1675 22.9736C21.7592 21.4141 20.1601 20.4784 18.6006 20.8867C17.0411 21.295 16.1054 22.8942 16.5137 24.4537C16.922 26.0132 18.5212 26.9489 20.0807 26.5406Z" fill="#CD6028"/>
<path d="M36.5375 28.5237C36.3843 28.5351 36.2369 28.5578 36.0838 28.5975C35.3126 28.7846 34.6547 29.261 34.2408 29.9415C33.8211 30.622 33.6964 31.4216 33.8778 32.1928C34.065 32.964 34.5413 33.6219 35.2218 34.0358C35.9023 34.4498 36.7019 34.5802 37.4732 34.3931C39.0723 34.0075 40.0591 32.397 39.6791 30.7978C39.3332 29.3517 37.9779 28.4047 36.5375 28.5237Z" fill="white"/>
<path d="M36.2634 29.4829C35.1973 29.7608 34.5565 30.8552 34.8344 31.9213C35.1123 32.9875 36.2067 33.6226 37.2729 33.3504C38.339 33.0725 38.9798 31.9781 38.7019 30.9119C38.424 29.8458 37.3296 29.2107 36.2634 29.4829Z" fill="#3E6EB4"/>
<path d="M26.0867 38.596C26.0867 38.596 26.0753 38.596 26.0696 38.596C25.7124 38.6243 25.4062 38.8171 25.2304 39.1234C25.0489 39.4353 25.0319 39.8039 25.1907 40.1328C25.3721 40.5071 25.7918 40.7566 26.2114 40.7282C26.5914 40.7112 26.8919 40.5127 27.0677 40.2008C27.2492 39.8889 27.2605 39.5203 27.1074 39.1914C26.9259 38.8115 26.512 38.5676 26.0923 38.596" fill="white"/>
<path d="M48.5089 13.0489C48.0665 12.7823 47.5505 12.6973 47.0515 12.8163C46.0137 13.0659 45.3786 14.1093 45.6224 15.1414C45.7415 15.6461 46.0534 16.0658 46.49 16.338C46.9324 16.6045 47.4484 16.6895 47.9475 16.5705C48.9852 16.3209 49.6204 15.2775 49.3765 14.2397C49.2574 13.7407 48.9512 13.3154 48.5089 13.0432" fill="white"/>
<path d="M47.2881 13.8141C46.7891 13.9445 46.4942 14.4549 46.6246 14.9539C46.755 15.4529 47.2654 15.7478 47.7644 15.6174C48.2578 15.487 48.5584 14.9766 48.4279 14.4775C48.2975 13.9785 47.7871 13.6836 47.2881 13.8141Z" fill="#CD6028"/>
</svg>
