<svg width="57" height="57" viewBox="0 0 57 57" fill="none" xmlns="http://www.w3.org/2000/svg">
<path d="M40.0528 45.554H16.9468C13.9138 45.554 11.4468 43.086 11.4468 40.054V16.949C11.4468 13.917 13.9138 11.449 16.9468 11.449H40.0528C43.0858 11.449 45.5528 13.917 45.5528 16.949V40.054C45.5528 43.086 43.0858 45.554 40.0528 45.554ZM16.9468 14.449C15.5688 14.449 14.4468 15.57 14.4468 16.949V40.054C14.4468 41.433 15.5688 42.554 16.9468 42.554H40.0528C41.4308 42.554 42.5528 41.433 42.5528 40.054V16.949C42.5528 15.57 41.4308 14.449 40.0528 14.449H16.9468Z" fill="white"/>
<path d="M28.5059 14.4479C27.6769 14.4479 27.0059 13.7759 27.0059 12.9479V7.20288C27.0059 6.37488 27.6769 5.70288 28.5059 5.70288C29.3349 5.70288 30.0059 6.37488 30.0059 7.20288V12.9479C30.0059 13.7759 29.3349 14.4479 28.5059 14.4479Z" fill="white"/>
<path d="M28.5058 8.703C26.1068 8.703 24.1548 6.751 24.1548 4.351C24.1548 1.951 26.1068 0 28.5058 0C30.9048 0 32.8568 1.952 32.8568 4.351C32.8568 6.75 30.9048 8.703 28.5058 8.703ZM28.5058 3.001C27.7608 3.001 27.1548 3.606 27.1548 4.352C27.1548 5.098 27.7608 5.704 28.5058 5.704C29.2508 5.704 29.8568 5.098 29.8568 4.352C29.8568 3.606 29.2508 3.001 28.5058 3.001Z" fill="white"/>
<path d="M12.9471 29.9951H7.20215C6.37315 29.9951 5.70215 29.3231 5.70215 28.4951C5.70215 27.6671 6.37315 26.9951 7.20215 26.9951H12.9471C13.7761 26.9951 14.4471 27.6671 14.4471 28.4951C14.4471 29.3231 13.7761 29.9951 12.9471 29.9951Z" fill="white"/>
<path d="M4.351 32.8461C1.952 32.8461 0 30.8941 0 28.4951C0 26.0961 1.952 24.1431 4.351 24.1431C6.75 24.1431 8.702 26.0951 8.702 28.4951C8.702 30.8951 6.75 32.8461 4.351 32.8461ZM4.351 27.1441C3.606 27.1441 3 27.7501 3 28.4961C3 29.2421 3.606 29.8471 4.351 29.8471C5.096 29.8471 5.702 29.2421 5.702 28.4961C5.702 27.7501 5.096 27.1441 4.351 27.1441Z" fill="white"/>
<path d="M49.7982 30.0071H44.0532C43.2242 30.0071 42.5532 29.3351 42.5532 28.5071C42.5532 27.6791 43.2242 27.0071 44.0532 27.0071H49.7982C50.6272 27.0071 51.2982 27.6791 51.2982 28.5071C51.2982 29.3351 50.6272 30.0071 49.7982 30.0071Z" fill="white"/>
<path d="M52.6493 32.858C50.2503 32.858 48.2983 30.906 48.2983 28.506C48.2983 26.106 50.2503 24.155 52.6493 24.155C55.0483 24.155 57.0003 26.107 57.0003 28.506C57.0003 30.905 55.0483 32.858 52.6493 32.858ZM52.6493 27.156C51.9043 27.156 51.2983 27.761 51.2983 28.507C51.2983 29.253 51.9043 29.859 52.6493 29.859C53.3943 29.859 54.0003 29.253 54.0003 28.507C54.0003 27.761 53.3943 27.156 52.6493 27.156Z" fill="white"/>
<path d="M28.4941 51.299C27.6651 51.299 26.9941 50.627 26.9941 49.799V44.054C26.9941 43.226 27.6651 42.554 28.4941 42.554C29.3231 42.554 29.9941 43.226 29.9941 44.054V49.799C29.9941 50.627 29.3231 51.299 28.4941 51.299Z" fill="white"/>
<path d="M28.4941 57.0009C26.0951 57.0009 24.1431 55.0488 24.1431 52.6498C24.1431 50.2508 26.0951 48.2979 28.4941 48.2979C30.8931 48.2979 32.8451 50.2498 32.8451 52.6498C32.8451 55.0498 30.8931 57.0009 28.4941 57.0009ZM28.4941 51.2989C27.7491 51.2989 27.1431 51.9049 27.1431 52.6509C27.1431 53.3969 27.7491 54.0019 28.4941 54.0019C29.2391 54.0019 29.8451 53.3969 29.8451 52.6509C29.8451 51.9049 29.2391 51.2989 28.4941 51.2989Z" fill="white"/>
<path d="M37.5898 14.451C36.7608 14.451 36.0898 13.779 36.0898 12.951V4.50098C36.0898 3.67298 36.7608 3.00098 37.5898 3.00098H41.7658C42.5948 3.00098 43.2658 3.67298 43.2658 4.50098C43.2658 5.32898 42.5948 6.00098 41.7658 6.00098H39.0898V12.951C39.0898 13.779 38.4188 14.451 37.5898 14.451Z" fill="white"/>
<path d="M52.4998 20.9109H44.0498C43.2208 20.9109 42.5498 20.2389 42.5498 19.4109C42.5498 18.5829 43.2208 17.9109 44.0498 17.9109H50.9998V15.2419C50.9998 14.4139 51.6708 13.7419 52.4998 13.7419C53.3288 13.7419 53.9998 14.4139 53.9998 15.2419V19.4109C53.9998 20.2389 53.3288 20.9109 52.4998 20.9109Z" fill="white"/>
<path d="M52.4998 43.2671C51.6708 43.2671 50.9998 42.5951 50.9998 41.7671V39.0911H44.0498C43.2208 39.0911 42.5498 38.4191 42.5498 37.5911C42.5498 36.7631 43.2208 36.0911 44.0498 36.0911H52.4998C53.3288 36.0911 53.9998 36.7631 53.9998 37.5911V41.7671C53.9998 42.5951 53.3288 43.2671 52.4998 43.2671Z" fill="white"/>
<path d="M41.7578 54.001H37.5898C36.7608 54.001 36.0898 53.329 36.0898 52.501V44.051C36.0898 43.223 36.7608 42.551 37.5898 42.551C38.4188 42.551 39.0898 43.223 39.0898 44.051V51.001H41.7578C42.5868 51.001 43.2578 51.673 43.2578 52.501C43.2578 53.329 42.5868 54.001 41.7578 54.001Z" fill="white"/>
<path d="M19.4099 54.001H15.2339C14.4049 54.001 13.7339 53.329 13.7339 52.501C13.7339 51.673 14.4049 51.001 15.2339 51.001H17.9099V44.051C17.9099 43.223 18.5809 42.551 19.4099 42.551C20.2389 42.551 20.9099 43.223 20.9099 44.051V52.501C20.9099 53.329 20.2389 54.001 19.4099 54.001Z" fill="white"/>
<path d="M4.5 43.2601C3.671 43.2601 3 42.5881 3 41.7601V37.5911C3 36.7631 3.671 36.0911 4.5 36.0911H12.95C13.779 36.0911 14.45 36.7631 14.45 37.5911C14.45 38.4191 13.779 39.0911 12.95 39.0911H6V41.7601C6 42.5881 5.329 43.2601 4.5 43.2601Z" fill="white"/>
<path d="M12.95 20.9109H4.5C3.671 20.9109 3 20.2389 3 19.4109V15.2349C3 14.4069 3.671 13.7349 4.5 13.7349C5.329 13.7349 6 14.4069 6 15.2349V17.9109H12.95C13.779 17.9109 14.45 18.5829 14.45 19.4109C14.45 20.2389 13.779 20.9109 12.95 20.9109Z" fill="white"/>
<path d="M19.4102 14.451C18.5812 14.451 17.9102 13.779 17.9102 12.951V6.00098H15.2422C14.4132 6.00098 13.7422 5.32898 13.7422 4.50098C13.7422 3.67298 14.4132 3.00098 15.2422 3.00098H19.4102C20.2392 3.00098 20.9102 3.67298 20.9102 4.50098V12.951C20.9102 13.779 20.2392 14.451 19.4102 14.451Z" fill="white"/>
<path fill-rule="evenodd" clip-rule="evenodd" d="M27.4641 27.2697C27.8685 27.2697 28.248 27.3767 28.5757 27.5639L32.3082 23.8314C32.3647 23.7749 32.3867 23.6999 32.3699 23.622L31.9463 21.6561C31.9294 21.5781 31.9515 21.5031 32.0079 21.4467L35.3873 18.0673C35.5155 17.9391 35.7336 18.0034 35.7717 18.1806L36.2676 20.4814C36.2879 20.5757 36.4243 20.7121 36.5186 20.7323L38.8194 21.2282C38.9966 21.2664 39.0609 21.4844 38.9327 21.6126L35.5533 24.9921C35.4969 25.0485 35.4219 25.0706 35.3439 25.0537L33.3781 24.6301C33.3001 24.6133 33.2251 24.6353 33.1687 24.6918L29.43 28.4305C29.6075 28.7518 29.7087 29.1213 29.7087 29.5143C29.7087 30.7541 28.7037 31.759 27.4641 31.759C26.2244 31.759 25.2194 30.754 25.2194 29.5143C25.2195 28.2747 26.2245 27.2697 27.4641 27.2697ZM30.2904 24.1283C26.3005 22.03 21.3824 24.9024 21.3824 29.5143C21.3824 32.8732 24.1053 35.596 27.4641 35.596C32.0618 35.596 34.9359 30.7055 32.8651 26.7164L31.2105 28.3709C31.9704 30.8637 30.1112 33.4305 27.4641 33.4305C25.3013 33.4305 23.548 31.6771 23.548 29.5143C23.548 26.8526 26.1418 24.9919 28.6406 25.7781L30.2904 24.1283ZM31.0144 20.7393C24.8691 18.2503 18 22.7535 18 29.5143C18 34.7413 22.2372 38.9785 27.4641 38.9785C34.2113 38.9785 38.7146 32.1348 36.2509 25.9929C35.5442 26.5167 34.6416 26.1472 33.8488 25.9763C36.5094 30.7672 33.0741 36.8129 27.4641 36.8129C23.4332 36.8129 20.1655 33.5451 20.1655 29.5143C20.1655 23.8946 26.2306 20.4604 31.0214 23.1403L30.7567 21.9123C30.6674 21.4976 30.7634 21.072 31.0144 20.7393Z" fill="white"/>
</svg>
